<?xml version="1.0" encoding="UTF-8" standalone="no"?><svg xmlns="http://www.w3.org/2000/svg" xmlns:xlink="http://www.w3.org/1999/xlink" fill="#ffffff" height="463.3" preserveAspectRatio="xMidYMid meet" version="1" viewBox="0.0 0.0 276.1 463.3" width="276.1" zoomAndPan="magnify"><g id="change1_1"><path d="M224.621,0H51.504C23.104,0,0,23.105,0,51.504V411.76c0,28.4,23.104,51.505,51.504,51.505h173.117 c28.399,0,51.504-23.104,51.504-51.505V51.504C276.125,23.105,253.021,0,224.621,0z M15,59.004h246.125V370.29H15V59.004z M51.504,15h173.117c17.558,0,32.257,12.462,35.726,29.004H15.778C19.247,27.462,33.946,15,51.504,15z M224.621,448.265H51.504 C31.376,448.265,15,431.889,15,411.76V385.29h246.125v26.471C261.125,431.889,244.749,448.265,224.621,448.265z" fill="inherit"/><path d="M138.062,394.936c-11.935,0-21.645,9.71-21.645,21.645s9.71,21.644,21.645,21.644s21.645-9.709,21.645-21.644 S149.997,394.936,138.062,394.936z M138.062,423.224c-3.664,0-6.645-2.98-6.645-6.644c0-3.664,2.98-6.645,6.645-6.645 s6.645,2.98,6.645,6.645C144.707,420.244,141.727,423.224,138.062,423.224z" fill="inherit"/></g></svg>