<?xml version="1.0" encoding="UTF-8" standalone="no"?><svg xmlns="http://www.w3.org/2000/svg" xmlns:xlink="http://www.w3.org/1999/xlink" fill="#ffffff" height="481.1" preserveAspectRatio="xMidYMid meet" version="1" viewBox="8.0 14.9 496.0 481.1" width="496" zoomAndPan="magnify"><g><g id="change1_1"><path d="M476,104H271.71l54.76-75.29c2.6-3.58,1.81-8.58-1.76-11.18c-3.58-2.6-8.58-1.81-11.18,1.76L256,98.4l-57.53-79.11 c-2.6-3.57-7.6-4.36-11.18-1.76c-3.57,2.6-4.36,7.6-1.76,11.18L240.29,104H36c-15.44,0-28,12.56-28,28v304c0,15.44,12.56,28,28,28 h31.06l13.78,27.58C82.2,494.29,84.97,496,88,496h336c3.03,0,5.8-1.71,7.16-4.42L444.94,464H476c15.44,0,28-12.56,28-28V132 C504,116.56,491.44,104,476,104z M419.06,480H92.94l-8-16h342.12L419.06,480z M488,436c0,6.62-5.38,12-12,12H36 c-6.62,0-12-5.38-12-12V132c0-6.62,5.38-12,12-12h440c6.62,0,12,5.38,12,12V436z" fill="inherit"/><path d="M356,136H68c-15.439,0-28,12.561-28,28v240c0,15.439,12.561,28,28,28h288c15.439,0,28-12.561,28-28V164 C384,148.561,371.439,136,356,136z M368,404c0,6.617-5.383,12-12,12H68c-6.617,0-12-5.383-12-12V164c0-6.617,5.383-12,12-12h288 c6.617,0,12,5.383,12,12V404z" fill="inherit"/><path d="M432,144c-22.056,0-40,17.944-40,40s17.944,40,40,40s40-17.944,40-40S454.056,144,432,144z M432,208 c-13.233,0-24-10.767-24-24s10.767-24,24-24s24,10.767,24,24S445.233,208,432,208z" fill="inherit"/><path d="M464,232h-64c-4.418,0-8,3.582-8,8v32c0,4.418,3.582,8,8,8h64c4.418,0,8-3.582,8-8v-32C472,235.582,468.418,232,464,232z M456,264h-48v-16h48V264z" fill="inherit"/><path d="M464,288h-64c-4.418,0-8,3.582-8,8v120c0,4.418,3.582,8,8,8h64c4.418,0,8-3.582,8-8V296C472,291.582,468.418,288,464,288z M456,408h-48V304h48V408z" fill="inherit"/></g></g></svg>