<?xml version="1.0" encoding="UTF-8" standalone="no"?><!-- Generator: Adobe Illustrator 21.1.0, SVG Export Plug-In . SVG Version: 6.00 Build 0)  --><svg xmlns="http://www.w3.org/2000/svg" enable-background="new 0 0 288.5 286.3" fill="#000000" id="Layer_1" version="1.1" viewBox="0 0 288.5 286.3" x="0px" xml:space="preserve" y="0px">
<g id="change1_1"><path d="m166.9 286.3c-6.4 0-12.5-2.2-17.6-6.3-6.4-5.3-10.1-13-10.1-21.3v-78.6c0-2.8 2.2-5 5-5s5 2.2 5 5v78.6c0 5.3 2.3 10.2 6.4 13.6s9.5 4.7 14.7 3.7c65.1-12.8 110.6-70.4 108.1-137-2.6-69.7-59.3-126.3-128.9-128.9-36.8-1.4-71.8 11.9-98.3 37.4-26.6 25.6-41.2 59.9-41.2 96.8 0 61.8 41.8 115.3 101.7 130.3 2.7 0.7 4.3 3.4 3.6 6.1s-3.4 4.3-6.1 3.6c-64.3-16.1-109.2-73.7-109.2-140 0-39.6 15.7-76.5 44.2-103.9s66-41.7 105.7-40.2c74.8 2.8 135.7 63.7 138.5 138.5 2.7 71.5-46.1 133.4-116.1 147.2-1.8 0.3-3.6 0.4-5.4 0.4zm-53-239.4c-5.2 0-9.3 4.2-9.3 9.3v70c0 5.2 4.2 9.3 9.3 9.3 5.2 0 9.3-4.2 9.3-9.3v-70c0.1-5.1-4.1-9.3-9.3-9.3zm70 9.4v70c0 5.2-4.2 9.3-9.3 9.3s-9.3-4.2-9.3-9.3v-70c0-5.2 4.2-9.3 9.3-9.3s9.3 4.1 9.3 9.3z" fill="#ffffff"/></g>
<g id="change2_1"><path d="m207 90.5h-125.5c-6 0-9.3 7-5.4 11.6l14.6 24.1c2.7 4.4 4.1 9.5 4.1 14.6v14.2c0 25.8 20.9 46.6 46.6 46.6h5.8c25.8 0 46.6-20.9 46.6-46.6v-14.2c0-5.2 1.4-10.2 4.1-14.6l14.6-24.1c3.8-4.6 0.5-11.6-5.5-11.6z" fill="#ffffff"/></g>
</svg>