<?xml version="1.0" encoding="UTF-8"?><svg xmlns="http://www.w3.org/2000/svg" xmlns:xlink="http://www.w3.org/1999/xlink" height="109.5" preserveAspectRatio="xMidYMid meet" version="1.0" viewBox="0.0 0.0 126.0 109.5" width="126.0" zoomAndPan="magnify"><g id="change1_1"><path d="M63,63.44c17.49,0,31.72-14.229,31.72-31.72C94.72,14.229,80.49,0,63,0S31.28,14.229,31.28,31.72 C31.28,49.21,45.51,63.44,63,63.44z M63,2c16.388,0,29.72,13.333,29.72,29.72S79.388,61.44,63,61.44S33.28,48.108,33.28,31.72 S46.612,2,63,2z" fill="inherit"/><path d="M63,59.042c15.065,0,27.321-12.256,27.321-27.321C90.321,16.655,78.065,4.398,63,4.398S35.679,16.655,35.679,31.72 C35.679,46.785,47.935,59.042,63,59.042z M63,6.398c13.962,0,25.321,11.359,25.321,25.322S76.962,57.042,63,57.042 S37.679,45.683,37.679,31.72S49.038,6.398,63,6.398z" fill="inherit"/><path d="M54.101,50.916h17.799c2.291,0,4.154-1.864,4.154-4.154V31.906c0-2.291-1.863-4.154-4.154-4.154H57.643v-4.999 c0-2.954,2.403-5.357,5.357-5.357s5.357,2.403,5.357,5.357c0,1.654,1.346,3,3,3s3-1.346,3-3c0-6.262-5.095-11.357-11.357-11.357 s-11.357,5.095-11.357,11.357v5.822c-1.023,0.757-1.696,1.963-1.696,3.331v14.855C49.946,49.052,51.81,50.916,54.101,50.916z M74.054,31.906v14.855c0,1.188-0.967,2.154-2.154,2.154H54.101c-1.188,0-2.154-0.966-2.154-2.154V31.906 c0-1.188,0.967-2.154,2.154-2.154h17.799C73.087,29.752,74.054,30.718,74.054,31.906z M53.643,22.753 c0-5.16,4.197-9.357,9.357-9.357s9.357,4.197,9.357,9.357c0,0.551-0.448,1-1,1s-1-0.449-1-1c0-4.057-3.301-7.357-7.357-7.357 s-7.357,3.3-7.357,7.357v4.999h-1.542c-0.157,0-0.306,0.029-0.458,0.046V22.753z" fill="inherit"/><path d="M115.832,70.758H10.168C4.562,70.758,0,75.32,0,80.926v18.453c0,5.606,4.562,10.168,10.168,10.168h105.664 c5.606,0,10.168-4.562,10.168-10.168V80.926C126,75.32,121.438,70.758,115.832,70.758z M124,99.379 c0,4.504-3.664,8.168-8.168,8.168H10.168c-4.504,0-8.168-3.664-8.168-8.168V80.926c0-4.504,3.664-8.168,8.168-8.168h105.664 c4.504,0,8.168,3.664,8.168,8.168V99.379z" fill="inherit"/><path d="M58.313,89.152h-7.162l5.065-5.064c0.391-0.391,0.391-1.023,0-1.414s-1.023-0.391-1.414,0l-5.064,5.064v-7.163 c0-0.553-0.447-1-1-1s-1,0.447-1,1v7.164l-5.065-5.065c-0.391-0.391-1.023-0.391-1.414,0s-0.391,1.023,0,1.414l5.065,5.064H39.16 c-0.553,0-1,0.447-1,1s0.447,1,1,1h7.162l-5.065,5.064c-0.391,0.391-0.391,1.023,0,1.414c0.195,0.195,0.451,0.293,0.707,0.293 s0.512-0.098,0.707-0.293l5.065-5.065v7.163c0,0.553,0.447,1,1,1s1-0.447,1-1v-7.162l5.064,5.064 c0.195,0.195,0.451,0.293,0.707,0.293s0.512-0.098,0.707-0.293c0.391-0.391,0.391-1.023,0-1.414l-5.065-5.064h7.162 c0.553,0,1-0.447,1-1S58.866,89.152,58.313,89.152z" fill="inherit"/><path d="M30.002,89.152h-7.162l5.065-5.064c0.391-0.391,0.391-1.023,0-1.414s-1.023-0.391-1.414,0l-5.065,5.065v-7.164 c0-0.553-0.447-1-1-1s-1,0.447-1,1v7.163l-5.064-5.064c-0.391-0.391-1.023-0.391-1.414,0s-0.391,1.023,0,1.414l5.065,5.064h-7.162 c-0.553,0-1,0.447-1,1s0.447,1,1,1h7.162l-5.065,5.064c-0.391,0.391-0.391,1.023,0,1.414c0.195,0.195,0.451,0.293,0.707,0.293 s0.512-0.098,0.707-0.293l5.064-5.064v7.162c0,0.553,0.447,1,1,1s1-0.447,1-1v-7.163l5.065,5.065 c0.195,0.195,0.451,0.293,0.707,0.293s0.512-0.098,0.707-0.293c0.391-0.391,0.391-1.023,0-1.414l-5.065-5.064h7.162 c0.553,0,1-0.447,1-1S30.555,89.152,30.002,89.152z" fill="inherit"/><path d="M86.84,89.152h-7.162l5.065-5.064c0.391-0.391,0.391-1.023,0-1.414s-1.023-0.391-1.414,0l-5.065,5.065v-7.164 c0-0.553-0.447-1-1-1s-1,0.447-1,1v7.163l-5.064-5.064c-0.391-0.391-1.023-0.391-1.414,0s-0.391,1.023,0,1.414l5.065,5.064h-7.162 c-0.553,0-1,0.447-1,1s0.447,1,1,1h7.162l-5.065,5.064c-0.391,0.391-0.391,1.023,0,1.414c0.195,0.195,0.451,0.293,0.707,0.293 s0.512-0.098,0.707-0.293l5.064-5.064v7.162c0,0.553,0.447,1,1,1s1-0.447,1-1v-7.163l5.065,5.065 c0.195,0.195,0.451,0.293,0.707,0.293s0.512-0.098,0.707-0.293c0.391-0.391,0.391-1.023,0-1.414l-5.065-5.064h7.162 c0.553,0,1-0.447,1-1S87.393,89.152,86.84,89.152z" fill="inherit"/><path d="M115.151,89.152h-7.162l5.065-5.064c0.391-0.391,0.391-1.023,0-1.414s-1.023-0.391-1.414,0l-5.064,5.064v-7.163 c0-0.553-0.447-1-1-1s-1,0.447-1,1v7.164l-5.065-5.065c-0.391-0.391-1.023-0.391-1.414,0s-0.391,1.023,0,1.414l5.065,5.064h-7.162 c-0.553,0-1,0.447-1,1s0.447,1,1,1h7.162l-5.065,5.064c-0.391,0.391-0.391,1.023,0,1.414c0.195,0.195,0.451,0.293,0.707,0.293 s0.512-0.098,0.707-0.293l5.065-5.065v7.163c0,0.553,0.447,1,1,1s1-0.447,1-1v-7.162l5.064,5.064 c0.195,0.195,0.451,0.293,0.707,0.293s0.512-0.098,0.707-0.293c0.391-0.391,0.391-1.023,0-1.414l-5.065-5.064h7.162 c0.553,0,1-0.447,1-1S115.704,89.152,115.151,89.152z" fill="inherit"/></g></svg>