<?xml version="1.0" encoding="UTF-8" standalone="no"?><svg xmlns="http://www.w3.org/2000/svg" xmlns:xlink="http://www.w3.org/1999/xlink" fill="#ffffff" height="32" preserveAspectRatio="xMidYMid meet" version="1" viewBox="0.0 0.0 28.0 32.0" width="28" zoomAndPan="magnify"><g id="change1_1"><path d="M25,6h-3V1c0-0.553-0.448-1-1-1H7C6.448,0,6,0.447,6,1v5H3C1.346,6,0,7.346,0,9v12c0,1.654,1.346,3,3,3h1v-2H3 c-0.551,0-1-0.448-1-1V9c0-0.552,0.449-1,1-1h22c0.551,0,1,0.448,1,1v12c0,0.552-0.449,1-1,1h-1v2h1c1.654,0,3-1.346,3-3V9 C28,7.346,26.654,6,25,6z M8,6V2h12v4H8z" fill="inherit"/><path d="M24,20v-2H4v2h2v11c0,0.553,0.448,1,1,1h14c0.552,0,1-0.447,1-1V20H24z M20,30H8V20h12V30z" fill="inherit"/><path d="M22 10H24V12H22z" fill="inherit"/><path d="M10 22H18V24H10z" fill="inherit"/><path d="M10 26H18V28H10z" fill="inherit"/></g></svg>