<?xml version="1.0" encoding="UTF-8" standalone="no"?><svg xmlns="http://www.w3.org/2000/svg" xmlns:xlink="http://www.w3.org/1999/xlink" fill="#000000" height="19.3" preserveAspectRatio="xMidYMid meet" version="1" viewBox="3.0 2.3 18.0 19.3" width="18" zoomAndPan="magnify"><g fill="#ffffff" id="change1_1"><path d="M12,5a7.0212,7.0212,0,0,1,4.8906,2H14V9h5a1,1,0,0,0,1-1V3H18V5.32A8.9777,8.9777,0,0,0,3,12H5A7.0081,7.0081,0,0,1,12,5Z" fill="inherit"/><path d="M19,12A6.9941,6.9941,0,0,1,7.1094,17H10V15H5a1,1,0,0,0-1,1v5H6V18.68A8.9777,8.9777,0,0,0,21,12Z" fill="inherit"/></g></svg>