<?xml version="1.0" encoding="UTF-8"?><svg xmlns="http://www.w3.org/2000/svg" xmlns:xlink="http://www.w3.org/1999/xlink" fill="#1c73ff" height="210.0" preserveAspectRatio="xMidYMid meet" version="1.0" viewBox="25.0 22.6 189.8 210.0" width="189.8" zoomAndPan="magnify">
 
 <g id="change1_1"><path d="m183.14 171.03c-8.013 0-15.182 3.163-20.665 8.12l-75.182-43.76c0.528-2.425 0.95-4.85 0.95-7.38s-0.422-4.956-0.95-7.38l74.334-43.334c5.693 5.27 13.18 8.54 21.51 8.54 17.502 0 31.63-14.13 31.63-31.63s-14.128-31.632-31.63-31.632-31.63 14.13-31.63 31.63c0 2.53 0.42 4.956 0.95 7.38l-74.334 43.335c-5.693-5.272-13.18-8.54-21.51-8.54-17.502 0-31.63 14.128-31.63 31.63s14.13 31.63 31.63 31.63c8.33 0 15.816-3.27 21.5-8.54l75.07 43.86c-0.527 2.214-0.843 4.534-0.843 6.853 0 16.976 13.812 30.788 30.788 30.788s30.787-13.812 30.787-30.788-13.812-30.787-30.787-30.787z" fill="#fff"/></g>
</svg>